<svg xmlns="http://www.w3.org/2000/svg" viewBox="0 0 38 38" id="shopping"><path d="M37,0H1A1,1,0,0,0,0,1V37a1,1,0,0,0,1,1H37a1,1,0,0,0,1-1V1A1,1,0,0,0,37,0ZM36,2v8H2V2ZM2,36V12H36V36ZM4,6A2,2,0,1,1,6,8,2,2,0,0,1,4,6Zm6,0a2,2,0,1,1,2,2A2,2,0,0,1,10,6Zm15,8H24a6,6,0,0,0-5.1,2.86,8,8,0,0,0-1.24-1.62l-.95-1a1,1,0,0,0-1.42,1.42l.95.95a5.91,5.91,0,0,1,1.7,3.43,7,7,0,1,0,5,1.13A6,6,0,0,0,26,16V15A1,1,0,0,0,25,14ZM24,27a5,5,0,1,1-5-5A5,5,0,0,1,24,27Zm-4-7a4,4,0,0,1,4-4A4,4,0,0,1,20,20Z" data-name="Layer 47"></path></svg>