<svg xmlns="http://www.w3.org/2000/svg" width="16" height="16" id="wrong"><path d="M8 .75c-.822 0-1.5.677-1.5 1.5h-1a.5.5 0 0 0-.5.5v.5H3.5a.5.5 0 0 0-.5.5v11a.5.5 0 0 0 .5.5h9a.5.5 0 0 0 .5-.5v-11a.5.5 0 0 0-.5-.5H11v-.5a.5.5 0 0 0-.5-.5h-1c0-.823-.678-1.5-1.5-1.5zm0 1c.282 0 .5.218.5.5v.5a.5.5 0 0 0 .5.5h1v1H6v-1h1a.5.5 0 0 0 .5-.5v-.5c0-.282.218-.5.5-.5zm-4 2.5h1v.5a.5.5 0 0 0 .5.5h5a.5.5 0 0 0 .5-.5v-.5h1v10H4v-10zM8 7a3 3 0 0 0-3 3 3 3 0 0 0 3 3 3 3 0 0 0 3-3 3 3 0 0 0-3-3zm-.645 1.563.707.707.708-.707.707.707-.707.707.707.707-.707.707-.707-.707-.708.707-.707-.707.707-.707-.707-.707.707-.707z" color="#000" font-family="sans-serif" font-weight="400" overflow="visible" style="line-height:normal;text-indent:0;text-align:start;text-decoration-line:none;text-decoration-style:solid;text-decoration-color:#000;text-transform:none;block-progression:tb;white-space:normal;isolation:auto;mix-blend-mode:normal;solid-color:#000;solid-opacity:1"></path></svg>